# xmcd
#
# Track frame offsets:
#	150
#	21935
#	46856
#	70149
#	92735
#	116716
#	135708
#	156510
#
# Disc length: 2391 seconds
#
# Revision: 6
# Processed by: cddbd v1.5.2PL0 Copyright (c) Steve Scherf et al.
# Submitted via: EasyCDDAExtractor 15.3.0.1
#
DISCID=6b095508
DTITLE=Marc Anthony - Valio La Pena
DYEAR=2004
DGENRE=Latin
TTITLE0=Valio La Pena
TTITLE1=Escapemonos (Con Jennifer Lopez)
TTITLE2=Ahora Quien
TTITLE3=Tu Amor Me Hace Bien
TTITLE4=Volando Entre Tus Brazos
TTITLE5=Amigo
TTITLE6=Se Esfuma Tu Amor
TTITLE7=Lamento Borincano
EXTD=
EXTT0=
EXTT1=
EXTT2=
EXTT3=
EXTT4=
EXTT5=
EXTT6=
EXTT7=
PLAYORDER=
